<svg width="205" height="221" viewBox="0 0 205 221" fill="none" xmlns="http://www.w3.org/2000/svg">
<rect width="205" height="221" fill="#F5F5F5"/>
<rect y="118.915" width="146.043" height="143.855" transform="rotate(-47.0609 0 118.915)" fill="#216EE2" fill-opacity="0.84"/>
<path d="M75.4148 126H74.3068L77.5114 117.273H78.6023L81.8068 126H80.6989L78.0909 118.653H78.0227L75.4148 126ZM75.8239 122.591H80.2898V123.528H75.8239V122.591ZM87.3662 126V117.273H90.3151C90.9969 117.273 91.5565 117.389 91.994 117.622C92.4315 117.852 92.7554 118.169 92.9656 118.572C93.1759 118.976 93.281 119.435 93.281 119.949C93.281 120.463 93.1759 120.919 92.9656 121.317C92.7554 121.714 92.433 122.027 91.9983 122.254C91.5636 122.479 91.0082 122.591 90.3321 122.591H87.9457V121.636H90.298C90.7639 121.636 91.1389 121.568 91.423 121.432C91.7099 121.295 91.9173 121.102 92.0452 120.852C92.1759 120.599 92.2412 120.298 92.2412 119.949C92.2412 119.599 92.1759 119.294 92.0452 119.033C91.9145 118.771 91.7057 118.57 91.4187 118.428C91.1318 118.283 90.7526 118.21 90.281 118.21H88.423V126H87.3662ZM91.4741 122.08L93.6219 126H92.3946L90.281 122.08H91.4741ZM104.969 117.273H106.026V123.051C106.026 123.648 105.885 124.18 105.604 124.649C105.326 125.115 104.932 125.483 104.424 125.753C103.915 126.02 103.319 126.153 102.634 126.153C101.949 126.153 101.353 126.02 100.844 125.753C100.336 125.483 99.9408 125.115 99.6596 124.649C99.3812 124.18 99.242 123.648 99.242 123.051V117.273H100.299V122.966C100.299 123.392 100.393 123.771 100.58 124.104C100.768 124.433 101.035 124.693 101.381 124.884C101.731 125.071 102.148 125.165 102.634 125.165C103.12 125.165 103.537 125.071 103.887 124.884C104.236 124.693 104.503 124.433 104.688 124.104C104.875 123.771 104.969 123.392 104.969 122.966V117.273ZM119.257 117.273V126H118.234L113.479 119.148H113.393V126H112.337V117.273H113.359L118.132 124.142H118.217V117.273H119.257Z" fill="black"/>
<line x1="51.7852" y1="167.75" x2="1.78518" y2="218.75" stroke="#216EE2" stroke-opacity="0.84" stroke-width="5"/>
<line x1="149.216" y1="57.2485" x2="203.216" y2="2.24853" stroke="#216EE2" stroke-opacity="0.84" stroke-width="5"/>
</svg>
